HIERARCHY
ROOT Hips
{
	OFFSET 0.000000 0.000000 0.000000
	CHANNELS 6 Xposition Yposition Zposition Zrotation Yrotation Xrotation 
	JOINT LeftUpLeg_virtual
	{
		OFFSET 0.000000 0.000000 0.000000
		CHANNELS 3 Zrotation Yrotation Xrotation
		JOINT LeftUpLeg
		{
			OFFSET 10.205400 -3.823500 0.155100
			CHANNELS 3 Zrotation Yrotation Xrotation
			JOINT LeftLeg
			{
				OFFSET 0.708757 -12.982077 0.567790
				CHANNELS 3 Zrotation Yrotation Xrotation
				JOINT LeftFoot
				{
					OFFSET -0.708756 -10.717838 -2.184338
					CHANNELS 3 Zrotation Yrotation Xrotation
					JOINT LeftToeBase
					{
						OFFSET 0.108149 -7.191104 7.560241
						CHANNELS 3 Zrotation Yrotation Xrotation
						End Site
						{
							OFFSET 0.000000 0.000000 0.000000
						}
					}
				}
			}
		}
	}
	JOINT RightUpLeg_virtual
	{
		OFFSET 0.000000 0.000000 0.000000
		CHANNELS 3 Zrotation Yrotation Xrotation
		JOINT RightUpLeg
		{
			OFFSET -10.205400 -3.823500 0.005500
			CHANNELS 3 Zrotation Yrotation Xrotation
			JOINT RightLeg
			{
				OFFSET -0.708756 -12.982134 0.610632
				CHANNELS 3 Zrotation Yrotation Xrotation
				JOINT RightFoot
				{
					OFFSET 0.708754 -10.717769 -1.945823
					CHANNELS 3 Zrotation Yrotation Xrotation
					JOINT RightToeBase
					{
						OFFSET -0.108140 -7.191069 7.372968
						CHANNELS 3 Zrotation Yrotation Xrotation
						End Site
						{
							OFFSET 0.000000 0.000000 0.000000
						}
					}
				}
			}
		}
	}
	JOINT Spine_virtual
	{
		OFFSET 0.000000 0.000000 0.000000
		CHANNELS 3 Zrotation Yrotation Xrotation
		JOINT Spine
		{
			OFFSET 0.000000 6.876099 0.125700
			CHANNELS 3 Zrotation Yrotation Xrotation
			JOINT Spine1
			{
				OFFSET 0.000000 8.022060 0.146608
				CHANNELS 3 Zrotation Yrotation Xrotation
				JOINT Spine2
				{
					OFFSET 0.000000 9.168068 0.167552
					CHANNELS 3 Zrotation Yrotation Xrotation
					JOINT Neck_virtual
					{
						OFFSET 0.000000 0.000000 0.000000
						CHANNELS 3 Zrotation Yrotation Xrotation
						JOINT Neck
						{
							OFFSET 0.000000 10.314075 0.188496
							CHANNELS 3 Zrotation Yrotation Xrotation
							JOINT Head
							{
								OFFSET 0.000000 7.643700 -2.377400
								CHANNELS 3 Zrotation Yrotation Xrotation
								End Site
								{
									OFFSET 0.000000 0.000000 0.000000
								}
							}
						}
					}
					JOINT LeftShoulder_virtual
					{
						OFFSET 0.000000 0.000000 0.000000
						CHANNELS 3 Zrotation Yrotation Xrotation
						JOINT LeftShoulder
						{
							OFFSET 4.392200 8.824978 0.174984
							CHANNELS 3 Zrotation Yrotation Xrotation
							JOINT LeftArm
							{
								OFFSET 8.771219 -2.981674 -0.026999
								CHANNELS 3 Zrotation Yrotation Xrotation
								JOINT LeftForeArm
								{
									OFFSET 8.512804 0.000000 -0.000000
									CHANNELS 3 Zrotation Yrotation Xrotation
									JOINT LeftHand
									{
										OFFSET 18.484802 0.000000 -0.000000
										CHANNELS 3 Zrotation Yrotation Xrotation
										End Site
										{
											OFFSET 0.000000 0.000000 0.000000
										}
									}
								}
							}
						}
					}
					JOINT RightShoulder_virtual
					{
						OFFSET 0.000000 0.000000 0.000000
						CHANNELS 3 Zrotation Yrotation Xrotation
						JOINT RightShoulder
						{
							OFFSET -4.392200 8.824993 0.141379
							CHANNELS 3 Zrotation Yrotation Xrotation
							JOINT RightArm
							{
								OFFSET -8.771282 -2.981682 -0.094208
								CHANNELS 3 Zrotation Yrotation Xrotation
								JOINT RightForeArm
								{
									OFFSET -8.494598 0.000000 0.000000
									CHANNELS 3 Zrotation Yrotation Xrotation
									JOINT RightHand
									{
										OFFSET -18.483803 0.000000 0.000001
										CHANNELS 3 Zrotation Yrotation Xrotation
										End Site
										{
											OFFSET 0.000000 0.000000 0.000000
										}
									}
								}
							}
						}
					}
				}
			}
		}
	}
}
MOTION
Frames: 13
Frame Time: 0.033333
-2.254847 22.928524 18.451202 178.658105 22.842632 -179.419589 -2.069830 -13.173742 14.695572 1.073163 12.252383 23.302172 23.673620 -7.575605 3.426897 -6.994377 0.572897 33.564379 0.000000 0.000000 0.000000 1.678871 -6.982709 18.539492 29.969750 8.550562 15.823600 -20.956784 0.965819 -0.361334 12.332882 1.114609 26.167162 0.000000 0.000000 0.000000 1.488348 -5.050431 -5.908994 4.699062 12.165925 -34.545464 -0.762356 -5.187301 14.321181 -0.058091 0.529409 0.340987 -1.134951 -2.486950 16.655722 -6.412556 1.242014 20.769468 0.000000 0.000000 0.000000 1.089510 -1.708734 11.488465 -5.122556 7.491724 1.248998 -66.217209 34.830888 -15.149872 -144.525478 -69.905634 -174.687511 0.000000 0.000000 0.000000 -4.683037 1.310391 10.846846 26.156426 1.867677 3.846941 48.363456 -38.630239 -8.778810 -165.607021 68.665681 -165.301383 0.000000 0.000000 0.000000 
-2.655287 23.076611 17.151957 -179.770961 22.313919 -178.129640 -2.196262 -13.638670 13.082283 2.406321 14.500821 23.828116 22.900209 -7.867858 6.982496 -9.191341 -0.858755 35.029079 0.000000 0.000000 0.000000 2.252747 -8.258215 16.173943 31.092483 7.909784 17.633711 -20.572545 -1.991336 -0.779710 11.857704 1.005341 28.297253 0.000000 0.000000 0.000000 2.411914 -5.243175 -7.667599 5.286128 12.185682 -34.467214 -0.609876 -5.246603 14.105511 -0.157944 0.455380 0.393229 -1.158461 -2.384580 16.778804 -6.470610 1.300070 20.838861 0.000000 0.000000 0.000000 1.039360 -1.957004 11.955327 -5.257523 7.222668 0.623056 -66.062717 33.214892 -21.102585 -146.498801 -68.455544 -172.222646 0.000000 0.000000 0.000000 -4.900210 1.042637 10.876355 25.434959 1.909661 4.120940 49.221557 -36.130396 -15.935356 -165.782010 67.047855 -164.819664 0.000000 0.000000 0.000000 
-3.075418 23.160803 15.808096 -179.754187 20.222061 -178.334955 -1.796292 -14.473007 11.435204 3.031960 17.029309 24.256175 21.793540 -8.008125 10.684339 -12.066800 -2.626818 36.349341 0.000000 0.000000 0.000000 2.763651 -9.513115 14.427164 31.869284 7.469004 19.352682 -20.219015 -3.588840 -1.106538 11.401996 1.142164 29.876876 0.000000 0.000000 0.000000 2.382847 -6.276174 -8.930361 5.535404 11.129639 -34.069100 -0.870091 -5.214205 14.154162 -0.033818 0.249644 0.380939 -1.140274 -2.546400 16.799917 -6.542005 1.533325 20.652943 0.000000 0.000000 0.000000 1.087299 -1.987439 11.941520 -5.514148 7.062029 0.256750 -65.952955 32.021587 -24.727648 -147.854635 -67.533331 -170.390175 0.000000 0.000000 0.000000 -4.843595 0.912142 10.886362 24.357327 2.398093 4.376815 49.324727 -33.504953 -21.557914 -165.950593 65.624225 -164.400755 0.000000 0.000000 0.000000 
-3.521015 23.125772 14.525229 179.914231 19.259052 -178.549041 -0.334264 -15.876643 10.108585 0.858180 20.211580 24.452641 21.669412 -10.005675 14.465248 -14.503007 -5.082673 35.578087 0.000000 0.000000 0.000000 2.823373 -9.714327 12.950736 32.082300 7.521165 20.740042 -20.022336 -3.996627 -0.988384 11.363033 1.701107 30.913856 0.000000 0.000000 0.000000 2.140475 -6.675971 -9.956892 5.750854 10.703805 -33.537513 -1.174294 -5.366626 14.192251 -0.005171 0.073366 0.331958 -1.261046 -2.618292 16.718811 -6.865337 1.760865 20.294809 0.000000 0.000000 0.000000 0.978099 -2.086510 11.892293 -6.084066 6.821979 0.038683 -66.473395 31.406952 -26.289050 -149.580118 -66.899490 -168.203367 0.000000 0.000000 0.000000 -5.024368 0.779285 10.684304 23.529640 2.964127 4.891338 49.366326 -31.383155 -25.548989 -165.679981 64.552541 -163.555737 0.000000 0.000000 0.000000 
-3.978601 23.023075 13.365896 179.833280 19.033838 -178.555912 -1.870354 -15.267363 8.887572 4.770642 21.244533 26.565287 18.623518 -7.140666 18.903674 -12.573664 -5.189236 32.791045 0.000000 0.000000 0.000000 2.696029 -9.577996 12.022549 31.800384 8.277317 21.897267 -19.859021 -3.807710 -0.148389 11.703788 2.600892 31.335521 0.000000 0.000000 0.000000 2.083456 -6.723241 -10.853883 6.070022 10.534891 -32.929821 -1.474612 -5.534364 14.362175 0.057867 -0.022395 0.264460 -1.428620 -2.757645 16.652039 -7.336003 1.884991 19.799233 0.000000 0.000000 0.000000 0.794846 -2.227762 11.866492 -7.137587 6.483390 -0.154887 -67.916000 31.427022 -25.933615 -150.694819 -66.703211 -166.831960 0.000000 0.000000 0.000000 -5.169737 0.575439 10.508804 22.956679 3.560819 5.570780 50.044718 -29.757956 -27.933462 -165.462111 64.210950 -162.840316 0.000000 0.000000 0.000000 
-4.420285 22.856133 12.336053 -179.996549 19.437914 -178.543672 -2.687657 -13.111942 7.035822 6.065117 20.649528 29.369912 18.170701 -6.430425 20.604169 -11.324349 -5.384198 30.859707 0.000000 0.000000 0.000000 2.516870 -9.395579 11.512324 31.023057 9.603693 22.825732 -19.748918 -3.543366 1.835673 12.276484 3.629534 31.270758 0.000000 0.000000 0.000000 2.313612 -7.003798 -11.164671 6.687089 10.474950 -32.352144 -1.674794 -5.638505 14.337974 -0.075347 -0.011928 0.313528 -1.810597 -2.821044 16.755485 -7.952218 1.864925 19.473122 0.000000 0.000000 0.000000 0.507810 -2.263357 12.146819 -8.507368 6.247470 -0.255023 -70.036104 31.865773 -23.762346 -152.189018 -67.203850 -164.927990 0.000000 0.000000 0.000000 -5.547065 0.666860 10.836745 22.974750 4.390446 6.023871 51.772161 -28.816087 -28.184024 -164.477690 64.280809 -161.509645 0.000000 0.000000 0.000000 
-4.815989 22.685289 11.469563 -179.890859 20.050401 -178.627533 -3.520958 -11.765433 8.044990 5.775725 20.508915 28.688936 17.633180 -6.037171 21.805794 -10.374550 -5.346305 31.316619 0.000000 0.000000 0.000000 2.642288 -9.417916 11.012026 29.894184 11.149020 23.223815 -19.386464 2.182933 4.058146 13.035343 4.702604 30.999398 0.000000 0.000000 0.000000 2.412897 -6.860915 -11.386269 7.087629 10.463124 -31.473696 -1.969526 -5.748826 14.614730 -0.008113 -0.050868 0.236227 -2.048899 -2.916494 16.876479 -8.463037 1.897341 18.871705 0.000000 0.000000 0.000000 0.179831 -2.454589 12.280188 -9.775609 5.822033 -0.203971 -72.683998 32.515402 -20.384476 -153.314497 -67.895291 -163.725754 0.000000 0.000000 0.000000 -5.716792 0.429171 10.820939 23.256992 4.949025 6.698496 53.945999 -28.368999 -26.801234 -163.777636 65.030265 -160.596940 0.000000 0.000000 0.000000 
-5.125892 22.539005 10.784865 -179.897088 20.828619 -178.976761 -4.102662 -10.872240 9.310935 5.207683 20.206039 28.354598 17.221181 -5.617711 21.950290 -9.937752 -5.423043 31.444856 0.000000 0.000000 0.000000 3.153456 -9.784124 10.534921 28.373559 12.819509 23.190902 -18.698008 7.213412 7.413436 13.778530 5.591663 30.498058 0.000000 0.000000 0.000000 2.597348 -6.777952 -11.227173 7.244575 10.386565 -30.452999 -2.291636 -5.781598 14.910245 0.113806 -0.067007 0.158352 -2.275707 -3.039057 17.033565 -8.931283 1.876611 18.298589 0.000000 0.000000 0.000000 0.026665 -2.513135 12.346136 -10.864475 5.360441 -0.100242 -74.455038 33.232552 -16.187944 -153.919898 -69.053322 -163.018133 0.000000 0.000000 0.000000 -5.823260 0.400118 10.986130 23.879216 5.615720 7.345720 56.167466 -28.407194 -23.496660 -162.579075 65.585204 -159.320596 0.000000 0.000000 0.000000 
-5.339137 22.478041 10.254148 179.881228 21.616470 -179.776753 -4.645663 -10.060442 10.404299 4.615739 20.049240 28.679391 16.938779 -4.995618 21.853294 -9.956946 -5.576831 31.293622 0.000000 0.000000 0.000000 4.471490 -10.891108 9.634373 26.677698 14.326214 22.460553 -17.634647 9.079135 11.496765 14.472816 6.208465 29.819448 0.000000 0.000000 0.000000 2.556409 -7.087672 -10.579242 7.445999 10.351701 -29.377497 -2.339441 -5.754938 15.241229 0.074418 -0.019598 0.076696 -2.424808 -3.019816 17.181742 -9.423957 1.832345 17.700669 0.000000 0.000000 0.000000 -0.182044 -2.348219 12.313726 -11.340104 4.766281 0.127092 -75.034136 33.646683 -11.490642 -154.175046 -70.366467 -162.534323 0.000000 0.000000 0.000000 -5.827571 0.377049 10.998463 24.605482 6.391691 7.889755 57.308306 -28.700923 -18.795426 -162.137421 66.303734 -158.916099 0.000000 0.000000 0.000000 
-5.480910 22.458324 9.863426 179.908931 21.974431 179.940637 -4.787498 -9.760116 11.045031 4.090458 19.660812 28.683830 16.999381 -4.533375 21.776900 -10.035308 -5.622513 30.858241 0.000000 0.000000 0.000000 5.585244 -12.181652 9.171736 24.206561 15.966947 21.468394 -16.098631 10.506521 15.092558 15.322590 7.026798 29.226530 0.000000 0.000000 0.000000 2.668581 -7.009361 -10.098388 7.373993 10.054485 -28.590564 -2.449077 -5.783943 15.485279 0.101916 -0.102990 0.067891 -2.444754 -3.108626 17.402885 -9.751736 1.753293 17.156148 0.000000 0.000000 0.000000 -0.212411 -2.409718 12.347843 -11.102782 3.888319 0.332609 -74.016568 33.505609 -6.237689 -154.010466 -71.933585 -162.802436 0.000000 0.000000 0.000000 -5.808788 0.411011 11.088350 25.215942 7.288205 8.401269 57.409161 -28.908974 -13.269882 -162.052372 66.933900 -158.943297 0.000000 0.000000 0.000000 
-5.582243 22.463911 9.601201 -179.474763 22.003676 -179.934982 -4.707003 -9.778198 11.600676 3.705942 19.191539 28.685702 17.310954 -4.153791 21.852767 -10.252115 -5.620512 30.555121 0.000000 0.000000 0.000000 6.541261 -13.449568 8.921398 20.647308 17.453575 19.960251 -14.314783 11.542119 17.101397 17.136723 10.815641 28.514665 0.000000 0.000000 0.000000 2.962182 -6.912778 -9.657341 7.516956 9.633949 -27.964884 -2.377669 -6.049793 15.607252 -0.019733 -0.265849 0.126792 -2.405283 -2.903618 17.418990 -9.675862 1.878022 16.535405 0.000000 0.000000 0.000000 -0.367496 -2.451238 12.455549 -10.118310 2.813348 0.677810 -71.488202 32.687895 -0.620940 -153.235963 -73.461710 -163.474294 0.000000 0.000000 0.000000 -5.887906 0.304483 11.025512 25.573147 8.347996 8.867658 55.715479 -28.819099 -6.955944 -162.346384 67.552750 -159.403774 0.000000 0.000000 0.000000 
-5.688738 22.481852 9.428084 -178.885250 22.035176 -179.504270 -4.671455 -9.902787 11.779137 3.336428 18.864356 28.498976 17.713344 -3.778181 22.039347 -10.671915 -5.689448 30.320586 0.000000 0.000000 0.000000 6.818279 -14.198627 8.864627 16.615600 18.483597 18.539495 -12.834763 11.046518 17.514541 19.779381 11.584488 25.739319 0.000000 0.000000 0.000000 3.466121 -7.027544 -9.376763 7.516248 9.313629 -27.561449 -2.364895 -5.914600 15.719431 0.006106 -0.518932 0.096586 -2.288504 -2.906305 17.418277 -9.571253 1.989982 15.963817 0.000000 0.000000 0.000000 -0.236129 -2.562031 12.275573 -8.782714 1.389490 0.963954 -67.908930 31.331970 5.416294 -151.339070 -75.343625 -165.517914 0.000000 0.000000 0.000000 -5.828380 0.369510 11.011400 25.453443 9.298366 9.403231 53.006885 -28.308428 -0.482312 -162.972125 68.124676 -160.190107 0.000000 0.000000 0.000000 
-5.794560 22.514145 9.276729 -178.504043 22.118722 -179.199452 -4.810831 -9.935851 11.685515 3.085672 18.759405 28.453849 18.157047 -3.460154 22.324323 -11.279435 -5.874720 30.377652 0.000000 0.000000 0.000000 7.129796 -14.783410 8.856841 13.832224 18.814210 17.871096 -12.600405 10.107421 17.099894 20.745639 10.481048 22.577335 0.000000 0.000000 0.000000 3.843611 -7.371133 -9.065082 7.478950 9.057591 -27.283635 -2.384855 -6.132595 15.726744 -0.016050 -0.424027 0.065971 -2.209533 -2.736386 17.342849 -9.244202 2.392197 15.428779 0.000000 0.000000 0.000000 -0.321551 -2.540614 12.286293 -7.286224 0.071310 1.401876 -63.487790 29.473865 11.747014 -148.919434 -76.871020 -168.164776 0.000000 0.000000 0.000000 -5.837174 0.458177 10.757836 25.087556 10.480904 9.900664 49.627017 -27.768691 6.172394 -163.658873 68.757383 -161.051558 0.000000 0.000000 0.000000 
